<svg width="385" height="380" viewBox="0 0 385 380" fill="none" xmlns="http://www.w3.org/2000/svg">
<path d="M192.485 0C86.185 0 0 86.173 0 192.485C0 298.785 86.185 384.97 192.485 384.97C298.797 384.97 384.97 298.785 384.97 192.485C384.97 86.173 298.797 0 192.485 0ZM192.485 360.909C99.467 360.909 24.061 285.503 24.061 192.485C24.061 99.467 99.467 24.061 192.485 24.061C285.503 24.061 360.909 99.467 360.909 192.485C360.909 285.503 285.503 360.909 192.485 360.909Z" fill="black"/>
<path id = "cirlce" d="M268.095 209.243L204.635 271.801V84.212C204.635 77.571 199.197 72.182 192.484 72.182C185.771 72.182 180.333 77.572 180.333 84.212V271.801L116.873 209.243C112.133 204.551 104.434 204.551 99.694 209.243C94.954 213.947 94.954 221.562 99.694 226.254L183.894 309.251C186.144 311.501 189.308 312.788 192.484 312.788C195.648 312.788 198.812 311.489 201.074 309.263L285.274 226.266C290.026 221.562 290.014 213.947 285.274 209.255C280.535 204.551 272.835 204.551 268.095 209.243Z" fill="black"/>
</svg>
