<svg version="1.1" xmlns="http://www.w3.org/2000/svg" viewBox="-848.657593075251 -2344.1514255997436 5260.935021069276 4061.042375788684">
	<desc>Created with Snap</desc>
	<defs></defs>
	<g>
		<g transform="matrix(11.8304,0,0,11.8304,-623.7092,-2908.7082)">
			<g id="gSl1r1euzw4ff">
				<path d="M61.01423,300.22949c59.23515,70.46036,160.56436,82.36752,241.84523,41.02591
		c81.90601-41.65958,158.72986-208.10381,21.72983-214.46304c-52.95584-2.45808-89.79474,40.29303-135.24965,3.27516
		c-37.44801-30.49716-64.47668-74.02538-132.06207-48.85297C-21.33626,110.49453,1.72878,229.7093,61.01423,300.22949z" fill="#e8715b" style=""></path>
			</g>

			<desc>Created with Snap</desc>
			<defs></defs>
		</g>
		<g>
			<g transform="matrix(1.024,0,0,-1.024,0,0)">
				<path d="M451 -10Q370 -10 299 21Q229 52 175 107Q122 163 92 235Q62 308 62 391Q62 473 91 545Q121 618 174 673Q228 728 298 759Q369 791 451 791Q523 791 582 770Q641 749 696 703Q705 696 706 686Q708 677 704 668Q700 660 692 656Q690 648 682 644Q674 640 663 641Q653 642 643 650Q604 684 558 700Q512 717 451 717Q386 717 329 691Q273 665 230 620Q187 575 162 516Q138 457 138 391Q138 323 162 264Q187 205 230 160Q273 115 329 89Q386 64 451 64Q506 64 555 82Q604 100 648 134Q660 144 673 142Q687 140 697 130Q707 120 707 104Q707 96 705 89Q703 83 696 76Q645 29 582 9Q519 -10 451 -10ZM707 352L707 104L631 120L631 321L475 321Q458 321 447 331Q436 341 436 356Q436 371 447 380Q458 390 475 390L668 390Q685 390 696 379Q707 369 707 352ZM1102 -5Q1025 -5 964 31Q903 68 867 131Q832 194 832 273Q832 353 868 416Q905 479 968 515Q1031 552 1110 552Q1189 552 1251 515Q1314 479 1350 416Q1387 353 1388 273L1357 249Q1357 177 1323 119Q1290 62 1232 28Q1175 -5 1102 -5ZM1110 65Q1168 65 1213 92Q1259 119 1285 166Q1312 214 1312 273Q1312 333 1285 380Q1259 427 1213 454Q1168 482 1110 482Q1053 482 1007 454Q961 427 934 380Q907 333 907 273Q907 214 934 166Q961 119 1007 92Q1053 65 1110 65ZM1349 0Q1332 0 1321 10Q1310 21 1310 38L1310 209L1329 288L1388 273L1388 38Q1388 21 1377 10Q1366 0 1349 0ZM2007 0Q1990 0 1979 11Q1968 22 1968 38L1968 298Q1968 360 1944 400Q1921 440 1880 460Q1840 480 1789 480Q1740 480 1700 461Q1661 442 1638 409Q1615 376 1615 334L1560 334Q1562 397 1594 446Q1626 496 1679 524Q1732 553 1797 553Q1868 553 1924 523Q1980 494 2012 437Q2045 380 2045 298L2045 38Q2045 22 2034 11Q2023 0 2007 0ZM1577 0Q1559 0 1548 10Q1538 21 1538 38L1538 508Q1538 526 1548 536Q1559 547 1577 547Q1594 547 1604 536Q1615 526 1615 508L1615 38Q1615 21 1604 10Q1594 0 1577 0ZM2456 -5Q2377 -5 2316 30Q2255 66 2220 129Q2186 192 2186 273Q2186 355 2222 418Q2258 481 2321 516Q2384 552 2464 552Q2545 552 2607 516Q2670 481 2705 418Q2741 355 2742 273L2697 249Q2697 175 2666 117Q2635 60 2580 27Q2526 -5 2456 -5ZM2466 -216Q2387 -216 2327 -187Q2267 -157 2228 -106Q2217 -94 2218 -80Q2220 -66 2233 -57Q2246 -48 2262 -51Q2278 -54 2287 -66Q2316 -102 2361 -124Q2407 -146 2467 -146Q2523 -146 2568 -119Q2613 -92 2639 -43Q2666 6 2666 72L2666 224L2695 282L2742 273L2742 69Q2742 -12 2706 -77Q2670 -141 2608 -179Q2546 -216 2466 -216ZM2464 65Q2523 65 2568 91Q2614 118 2640 165Q2666 212 2666 273Q2666 334 2640 381Q2614 429 2568 455Q2523 482 2464 482Q2405 482 2359 455Q2313 429 2287 381Q2261 334 2261 273Q2261 212 2287 165Q2313 118 2359 91Q2405 65 2464 65ZM3133 -5Q3056 -5 2995 31Q2934 68 2898 131Q2863 194 2863 273Q2863 353 2899 416Q2936 479 2999 515Q3062 552 3141 552Q3220 552 3282 515Q3345 479 3381 416Q3418 353 3419 273L3388 249Q3388 177 3354 119Q3321 62 3263 28Q3206 -5 3133 -5ZM3141 65Q3199 65 3244 92Q3290 119 3316 166Q3343 214 3343 273Q3343 333 3316 380Q3290 427 3244 454Q3199 482 3141 482Q3084 482 3038 454Q2992 427 2965 380Q2938 333 2938 273Q2938 214 2965 166Q2992 119 3038 92Q3084 65 3141 65ZM3380 0Q3363 0 3352 10Q3341 21 3341 38L3341 209L3360 288L3419 273L3419 38Q3419 21 3408 10Q3397 0 3380 0Z" fill="#072a55" style=""></path>
			</g>
		</g>
	</g>
</svg>